<svg xmlns="http://www.w3.org/2000/svg" viewBox="0 0 512 512">
  <!-- Orange shield background -->
  <path fill="#E34F26" d="M71,460 L30,0 481,0 440,460 255,512"/>
  <!-- Light orange inner shield -->
  <path fill="#EF652A" d="M256,472 L405,431 440,37 256,37"/>
  <!-- White text and details -->
  <path fill="#EBEBEB" d="M256,208 L181,208 176,150 256,150 256,94 255,94 114,94 115,109 129,265 256,265zM256,355 L255,355 192,338 188,296 158,296 132,296 139,379 255,414 256,414z"/>
  <!-- White text and details -->
  <path fill="#FFF" d="M255,208 L255,265 325,265 318,338 255,355 255,414 371,379 372,368 385,223 387,208 371,208zM255,94 L255,129 255,150 255,150 392,150 392,150 392,150 393,138 396,109 397,94z"/>
  <!-- Comment explaining the SVG structure -->
  <!-- This SVG creates the HTML5 shield logo with:
       1. An orange outer shield (background)
       2. A lighter orange inner shield
       3. White text and details for the "5" and "HTML" text
       The viewBox ensures proper scaling at any size -->
</svg>